<svg xmlns="http://www.w3.org/2000/svg" width="665.8" height="80.2"><path d="M159.4 78.4H149V24.6h-.4l-22 53.2h-8.4l-22-53.2h-.4v53.8H85.5V5.3h13.1L122.3 63h.4l23.6-57.7h13.2v73.1zm7.4-15.1c0-9.4 7.1-14.7 20.3-15.5l14.1-.9v-4c0-5.9-3.9-9.2-10.8-9.2-5.7 0-9.9 2.9-10.7 7.4h-10.2c.3-9.5 9.2-16.4 21.3-16.4 13 0 21.4 6.8 21.4 17.3v36.4h-10.5v-8.8h-.3c-3 5.7-9.6 9.3-16.7 9.3-10.5.1-17.9-6.2-17.9-15.6zm34.5-4.7v-4.1l-12.6.8c-7.1.5-10.8 3.1-10.8 7.7 0 4.5 3.8 7.3 9.9 7.3 7.6 0 13.5-4.9 13.5-11.7zm56.1-14.9c-1-5.6-5.3-9.8-12.5-9.8-8.4 0-13.9 7-13.9 18 0 11.3 5.6 18.1 14 18.1 6.7 0 11.2-3.3 12.5-9.5H268c-1.2 11.2-10.1 18.6-23 18.6-15.1 0-25.1-10.3-25.1-27.2 0-16.5 9.9-27.1 25-27.1 13.6 0 22.1 8.6 23 18.9h-10.5zm19.2 34.7V5.3h29.3c12.9 0 21.4 7.2 21.4 18.2 0 7.7-5.9 14.7-13.2 15.9v.4c9.9 1.1 16.7 8.2 16.7 17.9 0 12.9-9.4 20.7-25 20.7h-29.2zm11.3-42h12.6c9.8 0 15.4-4.1 15.4-11.3 0-6.8-4.7-10.5-12.9-10.5h-15.1v21.8zm15.6 32.7c10.2 0 15.6-4.2 15.6-12.1s-5.6-11.9-16.3-11.9h-14.9v24h15.6zm33.1-17.2c0-16.7 9.9-27.1 25.2-27.1S387 35.2 387 51.9c0 16.8-9.7 27.2-25.2 27.2-15.3 0-25.2-10.5-25.2-27.2zm39.3 0c0-11.4-5.3-18.1-14-18.1-8.8 0-14.1 6.7-14.1 18.1 0 11.5 5.3 18.2 14.1 18.2s14-6.7 14-18.2zm17.6 0c0-16.7 9.9-27.1 25.2-27.1s25.2 10.5 25.2 27.1c0 16.8-9.7 27.2-25.2 27.2-15.4 0-25.2-10.5-25.2-27.2zm39.2 0c0-11.4-5.3-18.1-14-18.1-8.8 0-14.1 6.7-14.1 18.1 0 11.5 5.3 18.2 14.1 18.2s14-6.7 14-18.2zm51.2-26.5h12.8l-21.9 22.9 22.8 30.1h-12.7l-18-23.5-4.5 4.5v19h-11V5.3h11v42.8h.1l21.4-22.7zm69.5-20.1c14.2 0 24 9.8 24 24 0 14.3-10.1 24.1-24.4 24.1h-15.7v25H526V5.3h27.4zm-16.1 38.6h13c9.9 0 15.5-5.3 15.5-14.5s-5.6-14.5-15.4-14.5h-13.1v29zm47.8-18.5h10.5v9h.2c1.7-6 6.5-9.6 12.8-9.6 1.6 0 2.9.2 3.7.4v10.2c-.9-.4-2.8-.6-4.9-.6-7 0-11.3 4.7-11.3 12.2v31.4h-10.9v-53zm29.3 26.5c0-16.7 9.9-27.1 25.2-27.1s25.2 10.5 25.2 27.1c0 16.8-9.7 27.2-25.2 27.2-15.4 0-25.2-10.5-25.2-27.2zm39.3 0c0-11.4-5.3-18.1-14-18.1-8.8 0-14.1 6.7-14.1 18.1 0 11.5 5.3 18.2 14.1 18.2s14-6.7 14-18.2zM43.9 12.7c2.7-3.4 4.6-8 4.1-12.7-4 .2-8.9 2.6-11.7 6.1-2.5 2.9-4.8 7.7-4.2 12.2 4.5.4 8.9-2.3 11.8-5.6m4 6.4c-6.5-.4-12.1 3.7-15.2 3.7-3.1 0-7.9-3.5-13-3.4-6.7.1-13 3.9-16.4 10-7 12.1-1.8 30 5 39.8 3.3 4.9 7.3 10.2 12.6 10 5-.2 6.9-3.2 12.9-3.2s7.8 3.2 13 3.1c5.5-.1 8.9-4.9 12.2-9.7 3.8-5.5 5.4-10.9 5.4-11.2-.1-.1-10.5-4.1-10.6-16.1-.1-10 8.2-14.8 8.6-15.1-4.6-6.9-11.9-7.7-14.5-7.9" fill="#fff"/></svg>